<?xml version="1.0" encoding="UTF-8" standalone="no"?>
<!-- Created with Inkscape (http://www.inkscape.org/) -->

<svg
   width="30.847883"
   height="7.0073242"
   viewBox="0 0 8.1618356 1.8540212"
   version="1.1"
   id="svg1"
   xmlns="http://www.w3.org/2000/svg"
   xmlns:svg="http://www.w3.org/2000/svg">
  <defs
     id="defs1" />
  <g
     id="layer2"
     transform="translate(-2.0805695,-214.75101)">
    <g
       id="g130"
       transform="translate(-1.6235973,1.3946283)">
      <path
         style="font-size:2.11667px;font-family:Futura;-inkscape-font-specification:Futura;letter-spacing:-0.0846667px;word-spacing:0px;stroke:#000000;stroke-width:0.132292"
         d="m 5.0291527,213.55541 v 0.28526 Q 4.8203796,213.666 4.5971371,213.666 q -0.2459802,0 -0.4144456,0.17673 -0.169499,0.1757 -0.169499,0.42995 0,0.25115 0.169499,0.42375 0.1694989,0.1726 0.4154791,0.1726 0.1271242,0 0.2160078,-0.0413 0.049609,-0.0207 0.1023195,-0.0558 0.053744,-0.0351 0.1126548,-0.0848 v 0.29042 q -0.206706,0.11679 -0.4340827,0.11679 -0.3420985,0 -0.5839445,-0.23875 -0.2408126,-0.24081 -0.2408126,-0.58084 0,-0.30489 0.2015384,-0.54364 0.2480473,-0.29249 0.6418223,-0.29249 0.2149743,0 0.4154791,0.11679 z m 0.4600038,-0.0858 v 1.36943 h 0.4692227 v 0.22634 H 5.2483439 v -1.59577 z"
         id="text105-4-4"
         aria-label="CL" />
      <g
         id="text105-3-5-8"
         style="font-size:2.11667px;font-family:'Helvetica Neue';-inkscape-font-specification:'Helvetica Neue';letter-spacing:-0.1905px;word-spacing:0px;fill:none;fill-opacity:0.999999;stroke:#000000;stroke-width:0.132292"
         aria-label="UD 9">
        <path
           style="font-family:Futura;-inkscape-font-specification:Futura;letter-spacing:-0.0846667px;fill:#000000;fill-opacity:1"
           d="m 7.6747877,213.46714 v 0.96118 q 0,0.20568 0.067179,0.30076 0.1002524,0.13746 0.2821537,0.13746 0.1829349,0 0.2831873,-0.13746 0.067179,-0.092 0.067179,-0.30076 v -0.96118 h 0.2408125 v 1.02733 q 0,0.25218 -0.1570966,0.41548 -0.1767336,0.1819 -0.4340827,0.1819 -0.257349,0 -0.4330491,-0.1819 -0.1570966,-0.1633 -0.1570966,-0.41548 v -1.02733 z m 1.238252,1.59577 v -1.59577 h 0.3348637 q 0.2408126,0 0.3803392,0.0475 0.1498619,0.0465 0.2718184,0.15813 0.247014,0.22531 0.247014,0.59222 0,0.36793 -0.2573493,0.59531 -0.1291913,0.11369 -0.2707849,0.15813 -0.1322919,0.0444 -0.3751715,0.0444 z m 0.2408125,-0.22634 h 0.1085207 q 0.1622642,0 0.2697514,-0.0341 0.1074871,-0.0362 0.1943036,-0.11472 0.1777672,-0.16226 0.1777672,-0.42271 0,-0.26252 -0.1757001,-0.42582 -0.1581301,-0.14573 -0.4661221,-0.14573 H 9.1538522 Z"
           id="path113" />
        <path
           style="font-family:Futura;-inkscape-font-specification:Futura;letter-spacing:-0.216958px;fill:#000000;fill-opacity:1"
           d="m 11.085686,215.11769 -0.176733,-0.13126 0.381372,-0.51986 q -0.03101,0.004 -0.05271,0.006 -0.0217,0.002 -0.03514,0.002 -0.19327,0 -0.334864,-0.14779 -0.14056,-0.14676 -0.14056,-0.35347 0,-0.22014 0.156063,-0.3762 0.157097,-0.1571 0.376205,-0.1571 0.218075,0 0.379306,0.15503 0.161231,0.154 0.161231,0.3638 0,0.18604 -0.157097,0.40204 z M 10.961663,213.956 q 0,0.12919 0.08785,0.21704 0.08888,0.0889 0.21394,0.0889 0.125058,0 0.212908,-0.0879 0.08888,-0.0889 0.08888,-0.21394 0,-0.12506 -0.08888,-0.21395 -0.08785,-0.0879 -0.213941,-0.0879 -0.124024,0 -0.211874,0.0879 -0.08888,0.0889 -0.08888,0.20981 z"
           id="path114" />
      </g>
      <path
         d="m 6.6796955,213.40299 c -0.024514,0.0817 -0.05597,0.19977 -0.075964,0.32763 -0.01747,0.11169 -0.024294,0.22646 -0.00982,0.31626 0.014475,0.0898 0.045232,0.14653 0.099219,0.17363 0.103784,0.0522 0.1607435,0.15475 0.1896525,0.26407 0.028914,0.10933 0.033079,0.23075 0.027389,0.34571 -0.00427,0.0862 -0.014325,0.16893 -0.025321,0.23875 a 0.61362135,0.87046785 0 0 0 0.3746541,-0.79892 0.61362135,0.87046785 0 0 0 -0.5798096,-0.86713 z"
         style="stroke:#000000;stroke-width:0.0264583;stroke-dasharray:none"
         id="path130" />
      <path
         d="m 6.7308552,215.13105 c 0.015022,-0.0776 0.032811,-0.18887 0.038757,-0.30902 0.00526,-0.10629 -8.171e-4,-0.21551 -0.023771,-0.30231 -0.022954,-0.0868 -0.060371,-0.14575 -0.1167888,-0.17415 -0.106215,-0.0534 -0.1557376,-0.1612 -0.1741495,-0.27544 -0.018408,-0.11424 -0.00897,-0.24108 0.00982,-0.36121 0.016936,-0.1083 0.042151,-0.2104 0.064596,-0.29146 a 0.61362135,0.87046785 0 0 0 -0.4971272,0.85266 0.61362135,0.87046785 0 0 0 0.613916,0.87023 0.61362135,0.87046785 0 0 0 0.084749,-0.009 z"
         style="stroke:#000000;stroke-width:0.0264583;stroke-dasharray:none"
         id="path129" />
    </g>
  </g>
</svg>
