<?xml version="1.0" encoding="UTF-8" standalone="no"?>
<!-- Created with Inkscape (http://www.inkscape.org/) -->

<svg
   width="30.847879"
   height="8.1772461"
   viewBox="0 0 8.1618346 2.163563"
   version="1.1"
   id="svg1"
   xmlns="http://www.w3.org/2000/svg"
   xmlns:svg="http://www.w3.org/2000/svg">
  <defs
     id="defs1" />
  <g
     id="layer1"
     transform="translate(-3.7041669,-213.25416)">
    <path
       style="font-size:2.11667px;font-family:Futura;-inkscape-font-specification:Futura;letter-spacing:-0.0846667px;word-spacing:0px;stroke:#000000;stroke-width:0.132292"
       d="m 5.0291527,213.55541 v 0.28526 Q 4.8203796,213.666 4.5971371,213.666 q -0.2459802,0 -0.4144456,0.17673 -0.169499,0.1757 -0.169499,0.42995 0,0.25115 0.169499,0.42375 0.1694989,0.1726 0.4154791,0.1726 0.1271242,0 0.2160078,-0.0413 0.049609,-0.0207 0.1023195,-0.0558 0.053744,-0.0351 0.1126548,-0.0848 v 0.29042 q -0.206706,0.11679 -0.4340827,0.11679 -0.3420985,0 -0.5839445,-0.23875 -0.2408126,-0.24081 -0.2408126,-0.58084 0,-0.30489 0.2015384,-0.54364 0.2480473,-0.29249 0.6418223,-0.29249 0.2149743,0 0.4154791,0.11679 z m 0.4600038,-0.0858 v 1.36943 h 0.4692227 v 0.22634 H 5.2483439 v -1.59577 z"
       id="text105-4-4"
       aria-label="CL" />
    <g
       id="text105-3-5-8"
       style="font-size:2.11667px;font-family:'Helvetica Neue';-inkscape-font-specification:'Helvetica Neue';letter-spacing:-0.1905px;word-spacing:0px;fill:none;fill-opacity:0.999999;stroke:#000000;stroke-width:0.132292"
       aria-label="UD 9">
      <path
         style="font-family:Futura;-inkscape-font-specification:Futura;letter-spacing:-0.0846667px;fill:#000000;fill-opacity:1"
         d="m 7.6747877,213.46714 v 0.96118 q 0,0.20568 0.067179,0.30076 0.1002524,0.13746 0.2821537,0.13746 0.1829349,0 0.2831873,-0.13746 0.067179,-0.092 0.067179,-0.30076 v -0.96118 h 0.2408125 v 1.02733 q 0,0.25218 -0.1570966,0.41548 -0.1767336,0.1819 -0.4340827,0.1819 -0.257349,0 -0.4330491,-0.1819 -0.1570966,-0.1633 -0.1570966,-0.41548 v -1.02733 z m 1.238252,1.59577 v -1.59577 h 0.3348637 q 0.2408126,0 0.3803392,0.0475 0.1498619,0.0465 0.2718184,0.15813 0.247014,0.22531 0.247014,0.59222 0,0.36793 -0.2573493,0.59531 -0.1291913,0.11369 -0.2707849,0.15813 -0.1322919,0.0444 -0.3751715,0.0444 z m 0.2408125,-0.22634 h 0.1085207 q 0.1622642,0 0.2697514,-0.0341 0.1074871,-0.0362 0.1943036,-0.11472 0.1777672,-0.16226 0.1777672,-0.42271 0,-0.26252 -0.1757001,-0.42582 -0.1581301,-0.14573 -0.4661221,-0.14573 H 9.1538522 Z"
         id="path113" />
      <path
         style="font-family:Futura;-inkscape-font-specification:Futura;letter-spacing:-0.216958px;fill:#000000;fill-opacity:1"
         d="m 11.085686,215.11769 -0.176733,-0.13126 0.381372,-0.51986 q -0.03101,0.004 -0.05271,0.006 -0.0217,0.002 -0.03514,0.002 -0.19327,0 -0.334864,-0.14779 -0.14056,-0.14676 -0.14056,-0.35347 0,-0.22014 0.156063,-0.3762 0.157097,-0.1571 0.376205,-0.1571 0.218075,0 0.379306,0.15503 0.161231,0.154 0.161231,0.3638 0,0.18604 -0.157097,0.40204 z M 10.961663,213.956 q 0,0.12919 0.08785,0.21704 0.08888,0.0889 0.21394,0.0889 0.125058,0 0.212908,-0.0879 0.08888,-0.0889 0.08888,-0.21394 0,-0.12506 -0.08888,-0.21395 -0.08785,-0.0879 -0.213941,-0.0879 -0.124024,0 -0.211874,0.0879 -0.08888,0.0889 -0.08888,0.20981 z"
         id="path114" />
    </g>
    <g
       id="g106-3-3"
       transform="matrix(1.0002363,0,0,0.94755313,-5.5461777,27.505994)">
      <g
         id="g105-9-1"
         transform="matrix(0.38490902,0,0,0.35563916,6.1391829,125.58363)"
         style="fill:#000000;fill-opacity:1">
        <path
           id="path104-0-1"
           style="stroke:#000000;stroke-width:0.132292"
           d="m 17.312202,201.09633 a 1.5938218,2.5830903 0 0 1 -1.593822,2.58309 1.5938218,2.5830903 0 0 1 -1.593822,-2.58309 1.5938218,2.5830903 0 0 1 1.593822,-2.58309 1.5938218,2.5830903 0 0 1 1.593822,2.58309 z" />
        <path
           style="fill:#000000;fill-opacity:1;stroke:#000000;stroke-width:0.158149"
           d="m 16.064851,203.61765 c 0,0 0.597477,-1.92953 -0.306458,-2.49758 -0.792472,-0.498 -0.04001,-2.60683 -0.04001,-2.60683"
           id="path105-5-4" />
      </g>
      <path
         style="fill:#000000;fill-opacity:1;stroke:none;stroke-width:0.136589"
         d="m 11.908167,198.3126 h 1.917766"
         id="path111-9" />
    </g>
    <path
       style="fill:#000000;fill-opacity:1;stroke:#ffffff;stroke-width:0.140674"
       d="m 6.7781873,215.2472 c 0,0 0.2042481,-0.80279 -0.1165403,-0.96349 -0.3207885,-0.16069 -0.015216,-1.00563 -0.015216,-1.00563"
       id="path112-5" />
  </g>
</svg>
